# Blender v2.64 (sub 0) OBJ File: ''
# www.blender.org
mtllib crate001test.mtl
v 19.017210 -3.709674 20.286556
v -20.982790 -3.709674 20.286556
v 19.017210 -3.709674 -19.713444
v -20.982790 -3.709674 -19.713444
vn 0.000000 1.000000 -0.000000
usemtl collision
s off
f 2//1 1//1 3//1 4//1
v -1.000000 -3.706415 1.000000
v -1.000000 -3.706415 -1.000000
v 1.000000 -3.706415 -1.000000
v 1.000000 -3.706415 1.000000
v -1.000000 -1.706415 1.000000
v -1.000000 -1.706415 -1.000000
v 1.000000 -1.706415 -1.000000
v 1.000000 -1.706415 1.000000
vt 0.000000 0.000000
vt 1.000000 0.000000
vt 1.000000 1.000000
vt 0.000000 1.000000
vn -1.000000 -0.000000 0.000000
vn 0.000000 0.000000 -1.000000
vn -0.000000 -1.000000 0.000000
vn 1.000000 -0.000000 0.000000
vn 0.000000 0.000000 1.000000
usemtl wood
s off
f 6/1/2 5/1/2 9/1/2 10/1/2
f 10/1/3 11/1/3 7/1/3 6/1/3
f 5/1/4 6/1/4 7/1/4 8/1/4
f 12/2/1 11/3/1 10/4/1 9/1/1
usemtl crate001.jpg
f 11/3/5 12/4/5 8/1/5 7/2/5
f 5/1/6 8/2/6 12/3/6 9/4/6
