# Blender v2.63 (sub 0) OBJ File: ''
# www.blender.org
mtllib test.mtl
v 50.000000 0.000000 50.000000
v -50.000000 0.000000 50.000000
v 50.000000 0.000000 -50.000000
v -50.000000 0.000000 -50.000000
vn 0.000000 1.000000 -0.000000
usemtl collision
s off
f 2//1 1//1 3//1 4//1
v 1.000000 -0.000789 -1.000000
v 1.000000 -0.000789 1.000000
v -1.000000 -0.000789 1.000000
v -1.000000 -0.000789 -1.000000
v 1.000000 1.999211 -0.999999
v 0.999999 1.999211 1.000001
v -1.000000 1.999211 1.000000
v -1.000000 1.999211 -1.000000
vn 0.000000 -1.000000 0.000000
vn 1.000000 0.000000 0.000000
vn -0.000000 -0.000000 1.000000
vn -1.000000 -0.000000 -0.000000
vn 0.000000 0.000000 -1.000000
usemtl Material
s off
f 5//2 6//2 7//2 8//2
f 9//1 12//1 11//1 10//1
f 5//3 9//3 10//3 6//3
f 6//4 10//4 11//4 7//4
f 7//5 11//5 12//5 8//5
f 9//6 5//6 8//6 12//6
